HIERARCHY
ROOT hip
{
  OFFSET 9.61854 105.935 -5.39096
  CHANNELS 6 Xposition Yposition Zposition Zrotation Xrotation Yrotation
  JOINT abdomen
  {
    OFFSET 0 -1.186 -1.50178
    CHANNELS 6 Xposition Yposition Zposition Zrotation Xrotation Yrotation
    JOINT abdomen2
    {
      OFFSET 0 9.964 0.21338
      CHANNELS 6 Xposition Yposition Zposition Zrotation Xrotation Yrotation
      JOINT chest
      {
        OFFSET 0 13.134 -3.25729
        CHANNELS 6 Xposition Yposition Zposition Zrotation Xrotation Yrotation
        JOINT neck
        {
          OFFSET 0 21.686 -1.69049
          CHANNELS 6 Xposition Yposition Zposition Zrotation Xrotation Yrotation
          JOINT head
          {
            OFFSET 0 11.838 -0.12368
            CHANNELS 6 Xposition Yposition Zposition Zrotation Xrotation Yrotation
            End Site
            {
              OFFSET 0 6.717 2.38717
            }
          }
        }
        JOINT lCollar
        {
          OFFSET 1.70688 20.075 5.0056
          CHANNELS 6 Xposition Yposition Zposition Zrotation Xrotation Yrotation
          JOINT lShldr
          {
            OFFSET 13.6458 -0.047012 -4.84902
            CHANNELS 6 Xposition Yposition Zposition Zrotation Xrotation Yrotation
            JOINT lForeArm
            {
              OFFSET 28.3255 -0.975903 2.28883
              CHANNELS 6 Xposition Yposition Zposition Zrotation Xrotation Yrotation
              JOINT lHand
              {
                OFFSET 22.1583 -0.530035 10.8316
                CHANNELS 6 Xposition Yposition Zposition Zrotation Xrotation Yrotation
                JOINT lThumb1
                {
                  OFFSET 0.785995 0.111999 2.58168
                  CHANNELS 6 Xposition Yposition Zposition Zrotation Xrotation Yrotation
                  JOINT lThumb2
                  {
                    OFFSET 0.3601 -0.878005 4.2331
                    CHANNELS 6 Xposition Yposition Zposition Zrotation Xrotation Yrotation
                    End Site
                    {
                      OFFSET 1.81271 -1.21601 2.2227
                    }
                  }
                }
                JOINT lCarpal1
                {
                  OFFSET 0.9571 1.114 1.76948
                  CHANNELS 6 Xposition Yposition Zposition Zrotation Xrotation Yrotation
                  JOINT lIndex1
                  {
                    OFFSET 4.1246 0.487 4.1451
                    CHANNELS 6 Xposition Yposition Zposition Zrotation Xrotation Yrotation
                    JOINT lIndex2
                    {
                      OFFSET 3.40521 -1.45401 2.7682
                      CHANNELS 6 Xposition Yposition Zposition Zrotation Xrotation Yrotation
                      End Site
                      {
                        OFFSET 1.4531 -1.795 1.2713
                      }
                    }
                  }
                  JOINT lMid1
                  {
                    OFFSET 5.6954 0.209991 2.1184
                    CHANNELS 6 Xposition Yposition Zposition Zrotation Xrotation Yrotation
                    JOINT lMid2
                    {
                      OFFSET 3.9766 -1.53999 2.3863
                      CHANNELS 6 Xposition Yposition Zposition Zrotation Xrotation Yrotation
                      End Site
                      {
                        OFFSET 1.4042 -1.926 1.125
                      }
                    }
                  }
                }
                JOINT lCarpal2
                {
                  OFFSET 2.09559 0.65999 -0.38939
                  CHANNELS 6 Xposition Yposition Zposition Zrotation Xrotation Yrotation
                  JOINT lRing1
                  {
                    OFFSET 5.0395 -0.089997 2.49707
                    CHANNELS 6 Xposition Yposition Zposition Zrotation Xrotation Yrotation
                    JOINT lRing2
                    {
                      OFFSET 3.7921 -1.552 1.4806
                      CHANNELS 6 Xposition Yposition Zposition Zrotation Xrotation Yrotation
                      End Site
                      {
                        OFFSET 1.4655 -1.808 0.9609
                      }
                    }
                  }
                  JOINT lPinky1
                  {
                    OFFSET 4.9141 -1.269 0.35915
                    CHANNELS 6 Xposition Yposition Zposition Zrotation Xrotation Yrotation
                    JOINT lPinky2
                    {
                      OFFSET 3.1477 -1.685 0.84623
                      CHANNELS 6 Xposition Yposition Zposition Zrotation Xrotation Yrotation
                      End Site
                      {
                        OFFSET 0.805505 -1.58499 0.79549
                      }
                    }
                  }
                }
              }
            }
          }
        }
        JOINT rCollar
        {
          OFFSET -1.70688 20.075 5.0056
          CHANNELS 6 Xposition Yposition Zposition Zrotation Xrotation Yrotation
          JOINT rShldr
          {
            OFFSET -13.6458 -0.047012 -4.84902
            CHANNELS 6 Xposition Yposition Zposition Zrotation Xrotation Yrotation
            JOINT rForeArm
            {
              OFFSET -28.3255 -0.975903 2.28883
              CHANNELS 6 Xposition Yposition Zposition Zrotation Xrotation Yrotation
              JOINT rHand
              {
                OFFSET -22.1583 -0.530036 10.8316
                CHANNELS 6 Xposition Yposition Zposition Zrotation Xrotation Yrotation
                JOINT rThumb1
                {
                  OFFSET -0.785995 0.111999 2.58168
                  CHANNELS 6 Xposition Yposition Zposition Zrotation Xrotation Yrotation
                  JOINT rThumb2
                  {
                    OFFSET -0.3601 -0.878005 4.2331
                    CHANNELS 6 Xposition Yposition Zposition Zrotation Xrotation Yrotation
                    End Site
                    {
                      OFFSET -1.81271 -1.21601 2.2227
                    }
                  }
                }
                JOINT rCarpal1
                {
                  OFFSET -0.9571 1.114 1.76948
                  CHANNELS 6 Xposition Yposition Zposition Zrotation Xrotation Yrotation
                  JOINT rIndex1
                  {
                    OFFSET -4.1246 0.487 4.1451
                    CHANNELS 6 Xposition Yposition Zposition Zrotation Xrotation Yrotation
                    JOINT rIndex2
                    {
                      OFFSET -3.40521 -1.45401 2.7682
                      CHANNELS 6 Xposition Yposition Zposition Zrotation Xrotation Yrotation
                      End Site
                      {
                        OFFSET -1.4531 -1.795 1.2713
                      }
                    }
                  }
                  JOINT rMid1
                  {
                    OFFSET -5.6954 0.209991 2.1184
                    CHANNELS 6 Xposition Yposition Zposition Zrotation Xrotation Yrotation
                    JOINT rMid2
                    {
                      OFFSET -3.9766 -1.53999 2.3863
                      CHANNELS 6 Xposition Yposition Zposition Zrotation Xrotation Yrotation
                      End Site
                      {
                        OFFSET -1.4042 -1.926 1.125
                      }
                    }
                  }
                }
                JOINT rCarpal2
                {
                  OFFSET -2.09559 0.65999 -0.38939
                  CHANNELS 6 Xposition Yposition Zposition Zrotation Xrotation Yrotation
                  JOINT rRing1
                  {
                    OFFSET -5.0395 -0.089997 2.49707
                    CHANNELS 6 Xposition Yposition Zposition Zrotation Xrotation Yrotation
                    JOINT rRing2
                    {
                      OFFSET -3.7921 -1.552 1.4806
                      CHANNELS 6 Xposition Yposition Zposition Zrotation Xrotation Yrotation
                      End Site
                      {
                        OFFSET -1.4655 -1.808 0.9609
                      }
                    }
                  }
                  JOINT rPinky1
                  {
                    OFFSET -4.9141 -1.269 0.35915
                    CHANNELS 6 Xposition Yposition Zposition Zrotation Xrotation Yrotation
                    JOINT rPinky2
                    {
                      OFFSET -3.1477 -1.685 0.84623
                      CHANNELS 6 Xposition Yposition Zposition Zrotation Xrotation Yrotation
                      End Site
                      {
                        OFFSET -0.805505 -1.58499 0.79549
                      }
                    }
                  }
                }
              }
            }
          }
        }
      }
    }
  }
  JOINT lThigh
  {
    OFFSET 8.367 -8.2066 0.59823
    CHANNELS 6 Xposition Yposition Zposition Zrotation Xrotation Yrotation
    JOINT lShin
    {
      OFFSET 2.19232 -43.463 -0.493181
      CHANNELS 6 Xposition Yposition Zposition Zrotation Xrotation Yrotation
      JOINT lFoot
      {
        OFFSET 0.733257 -45.8593 -2.64513
        CHANNELS 6 Xposition Yposition Zposition Zrotation Xrotation Yrotation
        End Site
        {
          OFFSET 2.6618 -4.26993 12.3931
        }
      }
    }
  }
  JOINT rThigh
  {
    OFFSET -8.367 -8.2066 0.59823
    CHANNELS 6 Xposition Yposition Zposition Zrotation Xrotation Yrotation
    JOINT rShin
    {
      OFFSET -2.19233 -43.463 -0.493108
      CHANNELS 6 Xposition Yposition Zposition Zrotation Xrotation Yrotation
      JOINT rFoot
      {
        OFFSET -0.733256 -45.8593 -2.64514
        CHANNELS 6 Xposition Yposition Zposition Zrotation Xrotation Yrotation
        End Site
        {
          OFFSET -2.6618 -4.26993 12.3931
        }
      }
    }
  }
}
MOTION
Frames:	4
Frame Time:	0.0333333
-2.86901 101.09 17.3965 4.20044 1.71543 5.06476 8.88179e-016 -1.186 -1.50178 -0.696745 0.895557 -1.11642 0 9.964 0.21338 -1.37616 1.80446 -2.22229 -3.88578e-016 13.134 -3.25729 -1.37616 1.80445 -2.22228 4.44089e-016 21.686 -1.69049 0.834556 -2.3319 -0.239136 -2.22045e-016 11.838 -0.12368 0.19522 -6.48926 -1.21428 1.70688 20.075 5.0056 7.55481 -2.20522 -12.2381 13.6458 -0.047012 -4.84902 -60.3546 11.1713 -0.621 28.3255 -0.975903 2.28883 -14.8449 -20.6667 -21.749 22.1583 -0.530035 10.8316 -3.94492 -7.90902 -5.63031 0.785995 0.111999 2.58168 1.68967e-015 0 -0 0.3601 -0.878005 4.2331 -1.19271e-015 3.18055e-015 -0 0.9571 1.114 1.76948 1.68967e-015 0 -0 4.1246 0.487 4.1451 -1.19271e-015 3.18055e-015 -0 3.40521 -1.45401 2.7682 -2.98177e-015 0 -3.18055e-015 5.6954 0.209991 2.1184 -1.19271e-015 3.18055e-015 -0 3.9766 -1.53999 2.3863 -2.98177e-015 0 -3.18055e-015 2.09559 0.65999 -0.38939 1.68967e-015 0 -0 5.0395 -0.089997 2.49707 -1.19271e-015 3.18055e-015 -0 3.7921 -1.552 1.4806 -2.98177e-015 0 -3.18055e-015 4.9141 -1.269 0.35915 -1.19271e-015 3.18055e-015 -0 3.1477 -1.685 0.84623 -2.98177e-015 0 -3.18055e-015 -1.70688 20.075 5.0056 4.19306 0.932638 9.70291 -13.6458 -0.047012 -4.84902 73.012 -22.8609 -15.6051 -28.3255 -0.975903 2.28883 -0.681039 6.78865 2.80736 -22.1583 -0.530036 10.8316 5.05518 2.75434 2.02723 -0.785995 0.111999 2.58168 1.39149e-015 7.95139e-016 -1.59028e-015 -0.3601 -0.878005 4.2331 9.93923e-016 7.95139e-016 -1.59028e-015 -0.9571 1.114 1.76948 1.39149e-015 7.95139e-016 -1.59028e-015 -4.1246 0.487 4.1451 9.93923e-016 7.95139e-016 -1.59028e-015 -3.40521 -1.45401 2.7682 -2.20695e-032 -7.95139e-016 -1.59028e-015 -5.6954 0.209991 2.1184 9.93923e-016 7.95139e-016 -1.59028e-015 -3.9766 -1.53999 2.3863 -2.20695e-032 -7.95139e-016 -1.59028e-015 -2.09559 0.65999 -0.38939 1.39149e-015 7.95139e-016 -1.59028e-015 -5.0395 -0.089997 2.49707 9.93923e-016 7.95139e-016 -1.59028e-015 -3.7921 -1.552 1.4806 -2.20695e-032 -7.95139e-016 -1.59028e-015 -4.9141 -1.269 0.35915 9.93923e-016 7.95139e-016 -1.59028e-015 -3.1477 -1.685 0.84623 -2.20695e-032 -7.95139e-016 -1.59028e-015 8.367 -8.2066 0.59823 -5.70822 17.6864 -0.307368 2.19232 -43.463 -0.493181 0.230392 8.63359 0.921053 0.733257 -45.8593 -2.64513 -3.18349 -8.77869 -3.08002 -8.367 -8.2066 0.59823 -4.95929 -26.6544 6.16137 -2.19233 -43.463 -0.493108 0.435854 4.05018 0.0587318 -0.733256 -45.8593 -2.64514 3.38765 -4.65109 2.42906 
-3.4302 101.119 23.2462 2.51933 1.15718 4.94703 -4.44089e-016 -1.186 -1.50178 -0.267487 0.974035 -0.993643 0 9.964 0.21338 -0.518154 1.95256 -1.98317 -4.44089e-016 13.134 -3.25729 -0.518155 1.95256 -1.98317 8.88179e-016 21.686 -1.69049 0.636313 -2.41259 -0.251279 -1.11022e-016 11.838 -0.12368 0.0147608 -6.54718 -1.27003 1.70688 20.075 5.0056 6.38183 -1.83408 -12.2527 13.6458 -0.047012 -4.84902 -59.9868 10.7966 -0.756514 28.3255 -0.975903 2.28883 -14.9257 -21.0366 -22.1284 22.1583 -0.530035 10.8316 -3.34899 -6.73479 -5.67101 0.785995 0.111999 2.58168 2.98177e-015 3.97569e-016 -6.36111e-015 0.3601 -0.878005 4.2331 2.5842e-015 0 3.18055e-015 0.9571 1.114 1.76948 2.98177e-015 3.97569e-016 -6.36111e-015 4.1246 0.487 4.1451 2.5842e-015 0 3.18055e-015 3.40521 -1.45401 2.7682 -3.97569e-015 -3.97569e-016 -3.18055e-015 5.6954 0.209991 2.1184 2.5842e-015 0 3.18055e-015 3.9766 -1.53999 2.3863 -3.97569e-015 -3.97569e-016 -3.18055e-015 2.09559 0.65999 -0.38939 2.98177e-015 3.97569e-016 -6.36111e-015 5.0395 -0.089997 2.49707 2.5842e-015 0 3.18055e-015 3.7921 -1.552 1.4806 -3.97569e-015 -3.97569e-016 -3.18055e-015 4.9141 -1.269 0.35915 2.5842e-015 0 3.18055e-015 3.1477 -1.685 0.846231 -3.97569e-015 -3.97569e-016 -3.18055e-015 -1.70688 20.075 5.0056 5.22449 1.09044 9.94095 -13.6458 -0.047012 -4.84902 71.5876 -24.436 -16.4153 -28.3255 -0.975903 2.28883 -0.719989 6.0872 2.10044 -22.1583 -0.530036 10.8316 4.24234 3.14128 1.71249 -0.785995 0.111999 2.58168 -3.97569e-016 7.95139e-016 -0 -0.3601 -0.878005 4.2331 -3.97569e-016 0 -0 -0.9571 1.114 1.76948 -3.97569e-016 7.95139e-016 -0 -4.1246 0.487 4.1451 -3.97569e-016 0 -0 -3.40521 -1.45401 2.7682 4.41391e-032 -7.95139e-016 3.18055e-015 -5.6954 0.209991 2.1184 -3.97569e-016 0 -0 -3.9766 -1.53999 2.3863 4.41391e-032 -7.95139e-016 3.18055e-015 -2.09559 0.65999 -0.38939 -3.97569e-016 7.95139e-016 -0 -5.0395 -0.089997 2.49707 -3.97569e-016 0 -0 -3.7921 -1.552 1.4806 4.41391e-032 -7.95139e-016 3.18055e-015 -4.9141 -1.269 0.35915 -3.97569e-016 0 -0 -3.1477 -1.685 0.84623 4.41391e-032 -7.95139e-016 3.18055e-015 8.367 -8.2066 0.59823 -3.2995 16.5559 1.5056 2.19232 -43.463 -0.493181 0.933307 16.8934 1.33921 0.733257 -45.8593 -2.64513 -5.94576 -3.71668 -3.93799 -8.367 -8.2066 0.59823 -2.24326 -26.1657 8.78017 -2.19233 -43.463 -0.493108 1.44038 8.77528 -0.401517 -0.733256 -45.8593 -2.64514 4.30317 -0.596288 1.672 
-4.18297 101.601 29.1319 1.50247 0.429018 4.73469 0 -1.186 -1.50178 -0.0260373 1.06091 -0.875943 4.44089e-016 9.964 0.21338 -0.0358571 2.1221 -1.75186 -4.44089e-016 13.134 -3.25729 -0.0358577 2.1221 -1.75186 4.44089e-016 21.686 -1.69049 0.592987 -2.36849 -0.246022 8.88179e-016 11.838 -0.12368 -0.0662066 -6.38684 -1.21803 1.70688 20.075 5.0056 5.11344 -1.43386 -12.2178 13.6458 -0.047012 -4.84902 -59.865 9.89521 -0.267942 28.3255 -0.975903 2.28883 -14.8051 -20.6795 -21.5828 22.1583 -0.530035 10.8316 -2.54691 -4.51057 -5.66999 0.785995 0.111999 2.58168 -2.08724e-015 -3.77691e-015 -0 0.3601 -0.878005 4.2331 3.8763e-015 -1.98785e-016 3.18055e-015 0.9571 1.114 1.76948 -2.08724e-015 -3.77691e-015 -0 4.1246 0.487 4.1451 3.8763e-015 -1.98785e-016 3.18055e-015 3.40521 -1.45401 2.7682 -1.98785e-015 -2.5842e-015 -0 5.6954 0.209991 2.1184 3.8763e-015 -1.98785e-016 3.18055e-015 3.9766 -1.53999 2.3863 -1.98785e-015 -2.5842e-015 -0 2.09559 0.65999 -0.38939 -2.08724e-015 -3.77691e-015 -0 5.0395 -0.089997 2.49707 3.8763e-015 -1.98785e-016 3.18055e-015 3.7921 -1.552 1.4806 -1.98785e-015 -2.5842e-015 -0 4.9141 -1.269 0.35915 3.8763e-015 -1.98785e-016 3.18055e-015 3.1477 -1.685 0.84623 -1.98785e-015 -2.5842e-015 -0 -1.70688 20.075 5.0056 6.68322 1.32195 10.2361 -13.6458 -0.047012 -4.84902 69.8881 -25.762 -16.9653 -28.3255 -0.975903 2.28883 -0.743466 5.65749 1.64701 -22.1583 -0.530036 10.8316 3.63261 3.21032 1.46474 -0.785995 0.111999 2.58168 3.97569e-016 1.59028e-015 3.18055e-015 -0.3601 -0.878005 4.2331 1.19271e-015 -3.18055e-015 6.36111e-015 -0.9571 1.114 1.76948 3.97569e-016 1.59028e-015 3.18055e-015 -4.1246 0.487 4.1451 1.19271e-015 -3.18055e-015 6.36111e-015 -3.40521 -1.45401 2.7682 1.59028e-015 2.38542e-015 3.18055e-015 -5.6954 0.209991 2.1184 1.19271e-015 -3.18055e-015 6.36111e-015 -3.9766 -1.53999 2.3863 1.59028e-015 2.38542e-015 3.18055e-015 -2.09559 0.65999 -0.38939 3.97569e-016 1.59028e-015 3.18055e-015 -5.0395 -0.089997 2.49707 1.19271e-015 -3.18055e-015 6.36111e-015 -3.7921 -1.552 1.4806 1.59028e-015 2.38542e-015 3.18055e-015 -4.9141 -1.269 0.35915 1.19271e-015 -3.18055e-015 6.36111e-015 -3.1477 -1.685 0.84623 1.59028e-015 2.38542e-015 3.18055e-015 8.367 -8.2066 0.59823 -1.5287 12.708 3.17151 2.19232 -43.463 -0.493181 2.17476 28.7322 2.03887 0.733257 -45.8593 -2.64513 -8.252 4.39941 -3.87595 -8.367 -8.2066 0.59823 -0.126431 -25.0892 13.1947 -2.19233 -43.463 -0.493108 3.34821 14.3524 -1.13854 -0.733256 -45.8593 -2.64514 4.84401 1.07987 -0.00688588 
-5.03368 102.227 34.8882 1.29915 -0.348319 4.83981 0 -1.186 -1.50178 -0.00859976 1.14022 -0.835925 0 9.964 0.21338 -0.000559024 2.28042 -1.67216 8.88179e-016 13.134 -3.25729 -0.000558507 2.28042 -1.67216 0 21.686 -1.69049 0.705853 -2.19335 -0.221991 -6.66134e-016 11.838 -0.12368 -0.00132454 -5.99812 -1.21045 1.70688 20.075 5.0056 4.2225 -1.15509 -12.1683 13.6458 -0.047012 -4.84902 -60.2785 8.59171 0.807658 28.3255 -0.975903 2.28883 -14.5314 -19.7206 -20.3127 22.1583 -0.530035 10.8316 -1.60967 -1.34518 -5.7791 0.785995 0.111999 2.58168 2.14936e-015 -4.47266e-016 -6.36111e-015 0.3601 -0.878005 4.2331 -3.60297e-015 -1.01877e-015 -3.18055e-015 0.9571 1.114 1.76948 2.14936e-015 -4.47266e-016 -6.36111e-015 4.1246 0.487 4.1451 -3.60297e-015 -1.01877e-015 -3.18055e-015 3.40521 -1.45401 2.7682 -3.29237e-015 -9.93923e-017 -0 5.6954 0.209991 2.1184 -3.60297e-015 -1.01877e-015 -3.18055e-015 3.9766 -1.53999 2.3863 -3.29237e-015 -9.93923e-017 -0 2.09559 0.65999 -0.38939 2.14936e-015 -4.47266e-016 -6.36111e-015 5.0395 -0.089997 2.49707 -3.60297e-015 -1.01877e-015 -3.18055e-015 3.7921 -1.552 1.4806 -3.29237e-015 -9.93923e-017 -0 4.9141 -1.269 0.35915 -3.60297e-015 -1.01877e-015 -3.18055e-015 3.1477 -1.685 0.84623 -3.29237e-015 -9.93923e-017 -0 -1.70688 20.075 5.0056 8.02897 1.54776 10.5189 -13.6458 -0.047012 -4.84902 68.6045 -26.6184 -17.1697 -28.3255 -0.975903 2.28883 -0.775253 5.46372 1.53416 -22.1583 -0.530036 10.8316 3.35521 2.93574 1.39352 -0.785995 0.111999 2.58168 -2.38542e-015 1.59028e-015 -0 -0.3601 -0.878005 4.2331 -1.19271e-015 7.95139e-016 -0 -0.9571 1.114 1.76948 -2.38542e-015 1.59028e-015 -0 -4.1246 0.487 4.1451 -1.19271e-015 7.95139e-016 -0 -3.40521 -1.45401 2.7682 -0 -3.18055e-015 -0 -5.6954 0.209991 2.1184 -1.19271e-015 7.95139e-016 -0 -3.9766 -1.53999 2.3863 -0 -3.18055e-015 -0 -2.09559 0.65999 -0.38939 -2.38542e-015 1.59028e-015 -0 -5.0395 -0.089997 2.49707 -1.19271e-015 7.95139e-016 -0 -3.7921 -1.552 1.4806 -0 -3.18055e-015 -0 -4.9141 -1.269 0.35915 -1.19271e-015 7.95139e-016 -0 -3.1477 -1.685 0.84623 -0 -3.18055e-015 -0 8.367 -8.2066 0.59823 -0.607373 6.8162 3.78761 2.19232 -43.463 -0.493181 3.74664 42.2442 3.07113 0.733257 -45.8593 -2.64513 -9.80638 12.9802 -2.86418 -8.367 -8.2066 0.59823 0.747293 -23.1528 16.5922 -2.19233 -43.463 -0.493108 5.71531 18.6872 -2.00785 -0.733256 -45.8593 -2.64514 3.65262 -0.841748 -1.70924 
